<?xml version="1.0" standalone="no"?>
<!DOCTYPE svg PUBLIC "-//W3C//DTD SVG 20010904//EN"
 "http://www.w3.org/TR/2001/REC-SVG-20010904/DTD/svg10.dtd">
<svg version="1.0" xmlns="http://www.w3.org/2000/svg"
 width="2000.000000pt" height="2000.000000pt" viewBox="0 0 2000.000000 2000.000000"
 preserveAspectRatio="xMidYMid meet">
<metadata>
Created by potrace 1.14, written by Peter Selinger 2001-2017
</metadata>
<g transform="translate(0.000000,2000.000000) scale(0.100000,-0.100000)"
fill="#000000" stroke="none">
<path d="M9618 19995 c-2 -1 -68 -6 -148 -10 -80 -4 -161 -8 -180 -10 -19 -1
-73 -6 -120 -10 -47 -3 -101 -8 -120 -10 -19 -2 -66 -6 -105 -9 -38 -4 -81 -8
-95 -11 -14 -2 -47 -7 -75 -10 -67 -7 -134 -15 -165 -21 -14 -2 -45 -6 -70
-10 -25 -3 -56 -7 -70 -10 -14 -2 -41 -7 -60 -10 -83 -13 -321 -56 -385 -69
-38 -8 -81 -17 -95 -20 -97 -18 -496 -114 -565 -135 -16 -6 -101 -30 -188 -55
-307 -89 -710 -231 -992 -350 -60 -25 -114 -48 -120 -49 -12 -4 -76 -32 -260
-116 -98 -45 -383 -186 -480 -238 -211 -113 -250 -135 -430 -243 -77 -46 -148
-88 -157 -94 -42 -24 -223 -140 -228 -145 -3 -3 -32 -23 -65 -45 -91 -58 -315
-217 -450 -319 -122 -91 -412 -322 -430 -342 -5 -6 -50 -45 -100 -87 -263
-222 -604 -554 -880 -858 -78 -84 -268 -307 -330 -384 -21 -28 -42 -52 -45
-55 -14 -13 -195 -248 -287 -375 -56 -77 -106 -144 -110 -150 -19 -24 -252
-378 -310 -471 -30 -48 -153 -253 -174 -289 -87 -153 -153 -273 -194 -355 -27
-52 -54 -98 -59 -102 -6 -4 -8 -8 -5 -8 4 0 -29 -72 -72 -161 -324 -658 -594
-1432 -758 -2169 -16 -74 -33 -151 -36 -170 -3 -19 -10 -51 -15 -70 -5 -19
-12 -55 -15 -80 -3 -25 -10 -61 -15 -80 -5 -19 -11 -53 -14 -75 -3 -22 -10
-67 -16 -100 -6 -33 -13 -73 -15 -90 -2 -16 -10 -79 -19 -140 -8 -60 -18 -134
-21 -164 -4 -30 -8 -61 -10 -70 -1 -9 -6 -50 -10 -91 -4 -41 -9 -88 -11 -105
-1 -16 -5 -70 -9 -120 -3 -49 -8 -103 -10 -120 -20 -149 -27 -955 -11 -1240
12 -232 26 -403 41 -532 3 -24 7 -64 11 -90 5 -44 19 -162 29 -238 4 -29 19
-131 31 -205 3 -19 12 -73 20 -120 8 -47 17 -98 20 -115 4 -25 67 -331 79
-385 1 -8 8 -33 13 -55 6 -22 13 -51 16 -65 2 -14 14 -63 26 -110 12 -47 23
-89 24 -95 10 -43 103 -365 133 -460 377 -1194 955 -2279 1737 -3255 55 -69
102 -127 105 -130 4 -3 23 -26 44 -52 21 -26 43 -53 50 -60 7 -7 41 -47 77
-88 181 -208 507 -545 706 -730 39 -36 93 -85 120 -110 199 -184 568 -483 844
-684 136 -100 475 -327 605 -406 99 -61 282 -168 335 -198 25 -13 59 -32 75
-42 317 -184 893 -450 1340 -617 296 -111 808 -275 965 -308 8 -2 71 -17 139
-35 69 -17 145 -35 170 -40 25 -5 89 -19 141 -30 82 -18 132 -28 270 -55 14
-2 36 -7 50 -10 14 -2 39 -7 55 -9 17 -3 59 -10 95 -16 80 -14 91 -15 160 -24
30 -4 66 -9 80 -11 54 -8 268 -35 325 -40 33 -3 78 -8 100 -10 36 -4 92 -8
240 -20 352 -27 1064 -27 1425 0 106 7 205 16 240 20 19 2 67 7 105 10 39 3
81 7 95 10 14 2 48 7 75 10 89 9 140 16 160 20 11 2 43 7 70 10 28 3 59 8 71
10 12 3 39 7 60 10 168 25 417 74 754 150 154 34 475 124 720 202 194 61 625
218 735 268 17 8 68 30 115 49 320 131 790 367 1148 578 239 140 618 387 752
488 19 15 89 66 155 115 103 75 249 188 320 246 60 50 292 244 301 253 6 6 46
43 90 81 130 116 209 192 388 370 234 234 391 403 531 571 40 47 71 84 131
153 140 162 428 553 605 821 60 91 112 170 116 176 46 63 353 588 356 609 1 5
5 12 8 15 19 15 273 536 361 740 203 471 326 823 489 1396 77 272 189 816 234
1139 2 11 6 44 10 74 4 30 8 61 10 70 2 9 6 44 10 76 3 33 8 76 10 95 3 19 7
62 11 95 3 33 8 74 10 90 2 17 6 71 9 120 3 50 8 107 10 128 27 249 27 1113 0
1422 -2 28 -7 82 -10 120 -9 101 -16 186 -20 220 -2 17 -6 59 -10 95 -4 36 -8
76 -11 90 -2 14 -6 45 -9 70 -5 40 -26 183 -41 280 -2 19 -9 58 -14 85 -5 28
-12 67 -14 87 -3 21 -11 59 -17 85 -6 27 -12 59 -14 73 -7 51 -82 392 -115
520 -12 47 -23 92 -25 100 -50 230 -298 976 -400 1205 -7 17 -27 64 -43 105
-90 223 -358 784 -436 909 -12 20 -26 44 -29 55 -10 25 -211 367 -300 510 -78
125 -327 487 -429 625 -121 162 -373 481 -429 542 -13 14 -51 57 -84 95 -127
147 -260 288 -455 484 -143 142 -336 326 -406 387 -49 42 -148 129 -158 138
-14 14 -280 231 -326 267 -19 15 -69 53 -110 85 -113 88 -406 299 -469 338 -9
6 -18 12 -21 15 -3 3 -43 30 -90 60 -47 29 -133 84 -192 122 -92 59 -242 149
-368 221 -98 56 -249 136 -365 195 -71 35 -131 69 -133 73 -2 5 -10 9 -18 9
-7 0 -48 18 -91 39 -568 286 -1481 602 -2133 740 -30 6 -93 20 -140 30 -47 11
-101 22 -120 25 -19 3 -60 10 -90 16 -30 6 -64 13 -75 15 -11 3 -63 11 -115
20 -52 8 -106 17 -120 19 -22 4 -63 10 -155 22 -16 2 -46 6 -65 9 -19 3 -55 7
-80 10 -57 6 -125 14 -170 20 -19 3 -69 7 -110 11 -41 3 -91 7 -110 9 -19 2
-82 7 -140 10 -58 4 -125 9 -150 11 -52 5 -927 14 -932 9z"/>
</g>
</svg>
